<?xml version="1.0" standalone="no"?><!DOCTYPE svg PUBLIC "-//W3C//DTD SVG 1.1//EN" "http://www.w3.org/Graphics/SVG/1.1/DTD/svg11.dtd"><svg t="1590049811515" class="icon" viewBox="0 0 1088 1024" version="1.1" xmlns="http://www.w3.org/2000/svg" p-id="7290" xmlns:xlink="http://www.w3.org/1999/xlink" width="34" height="32"><defs><style type="text/css"></style></defs><path d="M990.016 389.76 834.752 482.368 919.936 504.64C919.36 650.432 795.52 774.272 637.312 800.64L637.312 378.688 764.288 378.688 764.288 325.312 637.312 325.312 637.312 232.768C673.664 210.24 698.752 170.88 698.752 124.416 698.752 53.44 642.24 1.536 572.608 1.536 502.976 1.536 448.64 55.744 448.64 126.784 448.64 174.848 473.984 213.504 511.936 234.944L511.936 325.312 384.96 325.312 384.96 378.688 512 378.688 512 800.768C353.792 774.592 236.416 650.24 236.16 503.872L319.36 482.496 167.104 389.12 67.456 547.2 153.024 525.184C163.968 701.824 305.856 846.72 492.48 881.216 547.328 897.088 552.256 935.296 552.256 935.296L577.984 1020.224 604.416 935.872C604.416 935.872 615.36 894.4 664.128 881.216 850.112 846.72 991.68 702.208 1003.072 526.144L1086.208 547.776 990.016 389.76 990.016 389.76ZM572.992 64.064C606.848 64.064 634.24 91.712 634.24 125.76 634.24 159.808 606.848 187.392 572.992 187.392 539.072 187.392 511.68 159.808 511.68 125.76 511.68 91.712 539.072 64.064 572.992 64.064L572.992 64.064Z" p-id="7291"></path></svg>