<?xml version="1.0" encoding="UTF-8" standalone="no"?>
<!-- Created with Inkscape (http://www.inkscape.org/) -->

<svg
   xmlns:dc="http://purl.org/dc/elements/1.1/"
   xmlns:cc="http://creativecommons.org/ns#"
   xmlns:rdf="http://www.w3.org/1999/02/22-rdf-syntax-ns#"
   xmlns:svg="http://www.w3.org/2000/svg"
   xmlns="http://www.w3.org/2000/svg"
   xmlns:sodipodi="http://sodipodi.sourceforge.net/DTD/sodipodi-0.dtd"
   xmlns:inkscape="http://www.inkscape.org/namespaces/inkscape"
   width="25"
   height="25"
   viewBox="0 0 6.6145832 6.6145835"
   version="1.1"
   id="svg852"
   inkscape:version="0.92.4 (5da689c313, 2019-01-14)"
   sodipodi:docname="D1Dimension.svg">
  <defs
     id="defs846">
    <marker
       inkscape:stockid="TriangleInL"
       orient="auto"
       refY="0.0"
       refX="0.0"
       id="TriangleInL"
       style="overflow:visible"
       inkscape:isstock="true">
      <path
         id="path5246"
         d="M 5.77,0.0 L -2.88,5.0 L -2.88,-5.0 L 5.77,0.0 z "
         style="fill-rule:evenodd;stroke:#000000;stroke-width:1pt;stroke-opacity:1;fill:#000000;fill-opacity:1"
         transform="scale(-0.8)" />
    </marker>
    <marker
       inkscape:stockid="Arrow2Lend"
       orient="auto"
       refY="0.0"
       refX="0.0"
       id="Arrow2Lend"
       style="overflow:visible;"
       inkscape:isstock="true">
      <path
         id="path5134"
         style="fill-rule:evenodd;stroke-width:0.625;stroke-linejoin:round;stroke:#000000;stroke-opacity:1;fill:#000000;fill-opacity:1"
         d="M 8.7185878,4.0337352 L -2.2072895,0.016013256 L 8.7185884,-4.0017078 C 6.9730900,-1.6296469 6.9831476,1.6157441 8.7185878,4.0337352 z "
         transform="scale(1.1) rotate(180) translate(1,0)" />
    </marker>
    <marker
       inkscape:stockid="Arrow2Lstart"
       orient="auto"
       refY="0.0"
       refX="0.0"
       id="Arrow2Lstart"
       style="overflow:visible"
       inkscape:isstock="true">
      <path
         id="path5131"
         style="fill-rule:evenodd;stroke-width:0.625;stroke-linejoin:round;stroke:#000000;stroke-opacity:1;fill:#000000;fill-opacity:1"
         d="M 8.7185878,4.0337352 L -2.2072895,0.016013256 L 8.7185884,-4.0017078 C 6.9730900,-1.6296469 6.9831476,1.6157441 8.7185878,4.0337352 z "
         transform="scale(1.1) translate(1,0)" />
    </marker>
    <marker
       inkscape:stockid="TriangleInL"
       orient="auto"
       refY="0"
       refX="0"
       id="TriangleInL-7"
       style="overflow:visible"
       inkscape:isstock="true">
      <path
         inkscape:connector-curvature="0"
         id="path5246-6"
         d="M 5.77,0 -2.88,5 V -5 Z"
         style="fill:#000000;fill-opacity:1;fill-rule:evenodd;stroke:#000000;stroke-width:1.00000003pt;stroke-opacity:1"
         transform="scale(-0.8)" />
    </marker>
  </defs>
  <sodipodi:namedview
     id="base"
     pagecolor="#ffffff"
     bordercolor="#666666"
     borderopacity="1.0"
     inkscape:pageopacity="0.0"
     inkscape:pageshadow="2"
     inkscape:zoom="11.36966"
     inkscape:cx="35.219311"
     inkscape:cy="4.7490512"
     inkscape:document-units="px"
     inkscape:current-layer="layer1"
     showgrid="false"
     units="px"
     inkscape:window-width="2010"
     inkscape:window-height="1240"
     inkscape:window-x="343"
     inkscape:window-y="457"
     inkscape:window-maximized="0" />
  <metadata
     id="metadata849">
    <rdf:RDF>
      <cc:Work
         rdf:about="">
        <dc:format>image/svg+xml</dc:format>
        <dc:type
           rdf:resource="http://purl.org/dc/dcmitype/StillImage" />
        <dc:title />
      </cc:Work>
    </rdf:RDF>
  </metadata>
  <g
     inkscape:label="Layer 1"
     inkscape:groupmode="layer"
     id="layer1"
     transform="translate(0,-290.3854)">
    <path
       style="fill:none;stroke:#65a6c4;stroke-width:0.5129261;stroke-linecap:butt;stroke-linejoin:miter;stroke-miterlimit:4;stroke-dasharray:none;stroke-opacity:1"
       d="M 3.6722571,295.98817 1.0102416,294.08088"
       id="path14498"
       inkscape:connector-curvature="0" />
    <path
       style="fill:none;stroke:#64a6c4;stroke-width:0.5291667;stroke-linecap:butt;stroke-linejoin:miter;stroke-miterlimit:4;stroke-dasharray:none;stroke-opacity:1"
       d="m 5.8751845,292.96583 -2.559486,-1.865"
       id="path14500"
       inkscape:connector-curvature="0" />
    <path
       style="fill:none;stroke:#000000;stroke-width:0.34395833;stroke-linecap:butt;stroke-linejoin:miter;stroke-opacity:1;stroke-miterlimit:4;stroke-dasharray:none"
       d="m 2.7987934,291.92395 -1.2923951,1.52699"
       id="path14502"
       inkscape:connector-curvature="0" />
    <path
       style="fill:#000000;fill-opacity:1;stroke:#000000;stroke-width:0.25471511px;stroke-linecap:butt;stroke-linejoin:miter;stroke-opacity:1"
       d="m 3.2386451,291.44119 -0.9017962,0.1926 0.8983268,0.6864 z"
       id="path14600"
       inkscape:connector-curvature="0" />
    <path
       style="fill:#000000;fill-opacity:1;stroke:#000000;stroke-width:0.25471511px;stroke-linecap:butt;stroke-linejoin:miter;stroke-opacity:1"
       d="m 1.2956467,293.85201 0.9018,-0.1926 -0.89833,-0.6864 z"
       id="path14600-2"
       inkscape:connector-curvature="0" />
    <g
       aria-label="D1"
       transform="scale(0.81009055,1.2344299)"
       style="font-style:normal;font-weight:normal;font-size:2.00956297px;line-height:1.25;font-family:sans-serif;letter-spacing:0px;word-spacing:0px;fill:#000000;fill-opacity:1;stroke:none;stroke-width:0.05023907"
       id="text3726">
      <path
         d="m 6.1297362,238.52935 q 0,0.19919 -0.08733,0.3611 -0.086348,0.1619 -0.2305895,0.25119 -0.1000856,0.0618 -0.2237209,0.0893 -0.122654,0.0275 -0.3238065,0.0275 H 4.8953464 v -1.46106 h 0.3650183 q 0.2139085,0 0.3395062,0.0314 0.1265789,0.0304 0.2139086,0.0844 0.1491472,0.0932 0.2325519,0.24825 0.083405,0.15503 0.083405,0.36796 z m -0.2031151,-0.003 q 0,-0.17172 -0.059855,-0.28946 -0.059855,-0.11775 -0.1785842,-0.18546 -0.086348,-0.0491 -0.1834904,-0.0677 -0.097142,-0.0196 -0.2325519,-0.0196 H 5.0896303 v 1.12744 h 0.1825092 q 0.1403161,0 0.2443267,-0.0206 0.1049918,-0.0206 0.1923215,-0.0765 0.1089167,-0.0697 0.1628845,-0.18349 0.054949,-0.11383 0.054949,-0.28456 z"
         style="stroke-width:0.05023907"
         id="path3728" />
      <path
         d="M 7.3131018,239.25841 H 6.5222289 v -0.14915 h 0.3041819 v -0.97927 H 6.5222289 v -0.13345 q 0.061818,0 0.1324663,-0.01 0.070649,-0.0108 0.1069543,-0.0304 0.045137,-0.0245 0.070649,-0.0618 0.026493,-0.0383 0.030418,-0.10205 h 0.152091 v 1.31681 h 0.2982945 z"
         style="stroke-width:0.05023907"
         id="path3730" />
    </g>
  </g>
</svg>
